<?xml version="1.0" encoding="UTF-8" standalone="no"?>
<!-- Created with Inkscape (http://www.inkscape.org/) -->

<svg
   xmlns:dc="http://purl.org/dc/elements/1.1/"
   xmlns:cc="http://creativecommons.org/ns#"
   xmlns:rdf="http://www.w3.org/1999/02/22-rdf-syntax-ns#"
   xmlns:svg="http://www.w3.org/2000/svg"
   xmlns="http://www.w3.org/2000/svg"
   xmlns:sodipodi="http://sodipodi.sourceforge.net/DTD/sodipodi-0.dtd"
   xmlns:inkscape="http://www.inkscape.org/namespaces/inkscape"
   width="1563"
   height="887"
   viewBox="0 0 413.54374 234.68542"
   version="1.1"
   id="svg823"
   inkscape:version="0.92.5 (2060ec1f9f, 2020-04-08)"
   sodipodi:docname="background.svg"
   inkscape:export-filename="/home/walber/thoaded/images/thoaded-background.png"
   inkscape:export-xdpi="96"
   inkscape:export-ydpi="96">
  <defs
     id="defs817" />
  <sodipodi:namedview
     id="base"
     pagecolor="#ffffff"
     bordercolor="#666666"
     borderopacity="1.0"
     inkscape:pageopacity="0.0"
     inkscape:pageshadow="2"
     inkscape:zoom="0.35"
     inkscape:cx="488.57143"
     inkscape:cy="221.42857"
     inkscape:document-units="mm"
     inkscape:current-layer="layer1"
     showgrid="false"
     units="px"
     inkscape:window-width="1294"
     inkscape:window-height="704"
     inkscape:window-x="72"
     inkscape:window-y="27"
     inkscape:window-maximized="1" />
  <metadata
     id="metadata820">
    <rdf:RDF>
      <cc:Work
         rdf:about="">
        <dc:format>image/svg+xml</dc:format>
        <dc:type
           rdf:resource="http://purl.org/dc/dcmitype/StillImage" />
        <dc:title />
      </cc:Work>
    </rdf:RDF>
  </metadata>
  <g
     inkscape:label="Layer"
     inkscape:groupmode="layer"
     id="layer1"
     transform="translate(0,-62.314567)">
    <rect
       style="fill:#009688;fill-opacity:1;fill-rule:evenodd;stroke:none;stroke-width:0.74427581px;stroke-linecap:butt;stroke-linejoin:miter;stroke-opacity:1"
       id="rect3336"
       width="413.54376"
       height="234.68541"
       x="-6.1035157e-06"
       y="62.314571" />
    <g
       transform="matrix(0.26458333,0,0,0.26458333,172.64062,-64.648966)"
       id="g828">
      <g
         aria-label="H"
         style="font-style:normal;font-weight:normal;line-height:0%;font-family:sans-serif;letter-spacing:0px;word-spacing:0px;fill:#ffffff;fill-opacity:1;stroke:none;stroke-width:1px;stroke-linecap:butt;stroke-linejoin:miter;stroke-opacity:1"
         id="text4233">
        <path
           style="font-style:normal;font-variant:normal;font-weight:bold;font-stretch:normal;font-size:146.66667175px;line-height:1.25;font-family:sans-serif;-inkscape-font-specification:'sans-serif Bold';fill:#ffffff"
           d="m 81.089847,891.64638 c 9.190538,0 18.381075,0 27.571613,0 0,13.5829 0,27.1658 0,40.7487 13.55903,0 27.11806,0 40.67709,0 0,-13.5829 0,-27.1658 0,-40.7487 9.19054,0 18.38107,0 27.57161,0 0,35.64019 0,71.28039 0,106.92058 -9.19054,0 -18.38107,0 -27.57161,0 0,-15.11068 0,-30.22136 0,-45.33204 -13.55903,0 -27.11806,0 -40.67709,0 0,15.11068 0,30.22136 0,45.33204 -9.190538,0 -18.381075,0 -27.571613,0 0,-35.64019 0,-71.28039 0,-106.92058 z"
           id="path817"
           inkscape:connector-curvature="0" />
      </g>
      <path
         style="opacity:1;fill:#ffffff;fill-opacity:1;fill-rule:nonzero;stroke:none;stroke-width:17.26858711;stroke-linecap:round;stroke-linejoin:round;stroke-miterlimit:4;stroke-dasharray:none;stroke-opacity:1"
         d="m 44.000004,848.15741 c 56.666666,0 113.333326,0 169.999996,0 0,10 0,20 0,30 -56.66667,0 -113.33333,0 -169.999996,0 0,-10 0,-20 0,-30 z"
         id="rect856"
         inkscape:connector-curvature="0" />
    </g>
  </g>
</svg>
