<?xml version="1.0" encoding="UTF-8" standalone="no"?>
<!-- Created with Inkscape (http://www.inkscape.org/) -->

<svg
   xmlns:dc="http://purl.org/dc/elements/1.1/"
   xmlns:cc="http://creativecommons.org/ns#"
   xmlns:rdf="http://www.w3.org/1999/02/22-rdf-syntax-ns#"
   xmlns:svg="http://www.w3.org/2000/svg"
   xmlns="http://www.w3.org/2000/svg"
   xmlns:sodipodi="http://sodipodi.sourceforge.net/DTD/sodipodi-0.dtd"
   xmlns:inkscape="http://www.inkscape.org/namespaces/inkscape"
   width="256"
   height="256"
   viewBox="0 0 256 256"
   id="svg2"
   version="1.1"
   inkscape:version="0.92.3 (2405546, 2018-03-11)"
   sodipodi:docname="thoulded-path.svg">
  <defs
     id="defs4" />
  <sodipodi:namedview
     id="base"
     pagecolor="#ffffff"
     bordercolor="#666666"
     borderopacity="1.0"
     inkscape:pageopacity="0.0"
     inkscape:pageshadow="2"
     inkscape:zoom="1"
     inkscape:cx="29"
     inkscape:cy="64"
     inkscape:document-units="px"
     inkscape:current-layer="layer1"
     showgrid="false"
     showguides="false"
     inkscape:window-width="1299"
     inkscape:window-height="713"
     inkscape:window-x="67"
     inkscape:window-y="27"
     inkscape:window-maximized="1"
     units="px"
     fit-margin-top="0"
     fit-margin-left="0"
     fit-margin-right="0"
     fit-margin-bottom="0" />
  <metadata
     id="metadata7">
    <rdf:RDF>
      <cc:Work
         rdf:about="">
        <dc:format>image/svg+xml</dc:format>
        <dc:type
           rdf:resource="http://purl.org/dc/dcmitype/StillImage" />
        <dc:title />
        <cc:license
           rdf:resource="http://creativecommons.org/publicdomain/zero/1.0/" />
      </cc:Work>
      <cc:License
         rdf:about="http://creativecommons.org/publicdomain/zero/1.0/">
        <cc:permits
           rdf:resource="http://creativecommons.org/ns#Reproduction" />
        <cc:permits
           rdf:resource="http://creativecommons.org/ns#Distribution" />
        <cc:permits
           rdf:resource="http://creativecommons.org/ns#DerivativeWorks" />
      </cc:License>
    </rdf:RDF>
  </metadata>
  <g
     inkscape:label="Layer"
     inkscape:groupmode="layer"
     id="layer1"
     transform="translate(-1,-795.36218)">
    <path
       style="fill:#009688;fill-opacity:1;fill-rule:evenodd;stroke:none;stroke-width:0.61160368px;stroke-linecap:butt;stroke-linejoin:miter;stroke-opacity:1"
       d="m 1,795.36218 c 0,85.33333 0,170.66667 0,256.00002 85.333333,0 170.66667,0 256,0 0,-85.33335 0,-170.66669 0,-256.00002 -85.33333,0 -170.666667,0 -256,0 z m 43,52.79492 c 56.66667,0 113.33333,0 170,0 0,10 0,20 0,30 -56.66667,0 -113.33333,0 -170,0 0,-10 0,-20 0,-30 z m 37.089844,43.49024 c 9.190755,0 18.381511,0 27.572266,0 0,13.58268 0,27.16536 0,40.74804 13.55859,0 27.11719,0 40.67578,0 0,-13.58268 0,-27.16536 0,-40.74804 9.19076,0 18.38151,0 27.57227,0 0,35.63997 0,71.27995 0,106.91992 -9.19076,0 -18.38151,0 -27.57227,0 0,-15.11068 0,-30.22135 0,-45.33203 -13.55859,0 -27.11719,0 -40.67578,0 0,15.11068 0,30.22135 0,45.33203 -9.190755,0 -18.381511,0 -27.572266,0 0,-35.63997 0,-71.27995 0,-106.91992 z"
       id="rect3336" />
  </g>
</svg>
